<svg width="1082" height="253" viewBox="0 0 1082 253" fill="none" xmlns="http://www.w3.org/2000/svg">
<path fill-rule="evenodd" clip-rule="evenodd" d="M157.978 117.741L155.074 117.744L155.084 128.611C155.089 131.609 153.36 132.702 151.1 132.747C148.843 132.702 147.649 131.248 147.644 128.276L147.642 117.752H144.765L144.773 128.282C144.781 134.127 147.609 135.792 151.108 135.792C153.082 135.792 154.433 134.933 155.092 134.144L155.089 136.787C155.036 138.779 154.389 140.783 153.197 141.414C152.07 142.002 151.227 141.851 150.911 141.841V144.969C150.911 144.969 153.066 145.235 154.954 144.162C156.775 143.111 158.001 139.93 157.995 136.578L157.978 117.741V117.741ZM46.17 117.67C44.16 117.67 42.786 118.54 42.11 119.31L42.095 110.457L39.144 110.462L39.166 135.71L42.124 135.702L42.113 125.548C42.113 122.565 43.873 120.755 46.175 120.708C48.485 120.752 49.705 122.908 49.709 125.9L49.719 135.692H52.634L52.628 125.9C52.616 120.037 49.738 117.66 46.171 117.67H46.17ZM97.511 125.72C97.933 122.382 99.733 120.37 102.441 120.37C105.814 120.37 107.143 122.944 107.457 125.72H97.511V125.72ZM102.516 117.598C97.81 117.605 94.602 121.685 94.606 127.086C94.612 132.497 97.967 135.861 102.843 135.85C105.734 135.85 107.58 134.8 109.56 132.448L109.686 132.312L107.874 130.602L107.754 130.73C106.247 132.42 104.931 133.034 102.907 133.034C99.853 133.034 97.894 131.672 97.493 128.324L110.139 128.313L110.164 128.15C110.187 127.735 110.184 127.45 110.187 127.22C110.184 121.465 107.287 117.594 102.516 117.598V117.598ZM116.435 119.769V117.781H113.474L113.492 135.626H116.448L116.442 125.412C116.439 122.419 118.852 120.804 121.145 120.751C121.465 120.765 121.786 120.797 122.08 120.859V117.676C121.769 117.633 121.455 117.614 121.141 117.619C118.991 117.611 117.436 118.362 116.435 119.769V119.769ZM28.154 121.735C24.731 120.865 22.524 120.249 22.524 117.239C22.522 114.73 24.58 113.2 27.669 113.195C29.831 113.195 31.919 114.125 33.179 115.785L35.351 113.772C34.454 112.092 31.566 110.126 27.62 110.132C23.052 110.14 19.618 113.227 19.618 117.32C19.623 122.443 23.264 123.7 26.962 124.646C30.547 125.562 33.058 126.516 33.058 129.45C33.06 132.155 31.048 132.902 27.687 132.902C24.229 132.909 22.237 130.897 21.211 129.291L19 131.369C19.762 133.504 23.386 135.972 27.725 135.972C32.758 135.957 36.01 133.789 35.999 129.325C36.007 124.331 32.199 122.741 28.154 121.735V121.735ZM138.03 110.354L138.055 135.59L140.969 135.575L140.949 110.348L138.029 110.354H138.03ZM66.12 117.846L66.125 128.618C66.132 131.62 64.758 132.721 62.463 132.765C60.155 132.728 58.791 131.62 58.785 128.635L58.775 117.849H55.835L55.848 128.774C55.854 133.662 58.327 135.904 62.463 135.896C66.6 135.889 69.063 133.649 69.06 128.767L69.05 117.835L66.12 117.845V117.846ZM90.556 132.303C89.33 131.689 88.666 130.888 88.586 128.896L88.58 120.92L92.884 120.916L92.876 117.814L88.573 117.821L88.57 110.41H85.616L85.63 117.822H83.508V120.932H85.632L85.642 128.903C85.644 132.245 86.899 134.018 88.769 135.061C90.694 136.128 92.897 135.855 92.897 135.855L92.892 132.737C92.562 132.737 91.699 132.892 90.556 132.304V132.303ZM78.92 132.311C77.695 131.689 77.025 130.897 76.943 128.908V120.941L81.244 120.931V117.824L76.936 117.831L76.934 110.421H73.992L73.997 117.831H71.874L71.882 120.946H74.005L74.008 128.908C74.017 132.262 75.268 134.026 77.129 135.074C79.054 136.149 81.261 135.874 81.261 135.874V132.747C80.929 132.747 80.065 132.9 78.92 132.311V132.311ZM134.132 117.751H129.826V117.593C129.897 115.605 130.561 114.223 131.786 113.589C132.932 113.001 133.8 113.156 134.129 113.156V110.018C134.129 110.018 131.909 109.8 129.994 110.878C128.145 111.933 126.887 114.454 126.89 117.802L126.887 117.756H124.764L124.768 120.859H126.89L126.904 135.601L129.846 135.593L129.829 120.851L134.137 120.847L134.132 117.752V117.751Z" fill="#B2B2B2"/>
<path fill-rule="evenodd" clip-rule="evenodd" d="M337.707 116H315.064C314.734 117.32 315.724 118.42 316.933 118.42H337.597C340.345 118.42 342.543 121.06 341.884 123.92C341.334 126.01 339.795 132.28 339.795 132.28C339.355 134.26 337.597 135.58 335.508 135.58H318.691C317.922 135.58 317.262 134.92 317.482 134.04C318.032 131.95 319.571 125.79 319.571 125.79C319.901 124.58 318.911 123.37 317.702 123.37C317.702 123.37 315.834 130.85 315.174 133.38C314.514 135.8 316.274 138 318.691 138H335.618C338.696 138 341.444 135.8 342.213 132.83C342.213 132.83 343.753 126.56 344.302 124.47C345.51 119.85 341.884 116 337.707 116ZM368.373 135.58C367.933 137.67 367.384 138 366.285 138H345.73C345.446 138.01 345.164 137.937 344.92 137.791C344.675 137.646 344.477 137.433 344.35 137.178C344.222 136.923 344.171 136.637 344.201 136.354C344.231 136.071 344.342 135.802 344.52 135.58H368.372H368.373ZM402.557 116C402.117 118.09 401.567 118.42 400.469 118.42H383.432C381.453 118.42 379.695 119.74 379.145 121.72C378.595 123.81 377.606 127.99 377.057 130.08C376.287 133.05 378.595 135.58 381.343 135.58H397.611C397.908 135.575 398.202 135.64 398.469 135.769C398.737 135.897 398.971 136.087 399.152 136.322C399.334 136.557 399.458 136.831 399.514 137.122C399.571 137.414 399.559 137.714 399.479 138H381.343C376.727 138 373.649 133.82 374.748 129.53C375.188 127.44 376.288 123.37 376.837 121.17C377.497 118.09 380.244 116 383.432 116H402.557ZM425.639 116H412.78C409.703 116 406.955 118.2 406.185 121.17C405.635 123.26 404.646 127.33 404.097 129.53C403.107 133.82 406.185 138 410.692 138H423.552C426.63 138 429.378 135.8 430.147 132.83C430.697 130.74 431.686 126.67 432.235 124.47C433.335 120.18 430.257 116 425.64 116H425.639ZM429.926 123.92C429.376 126.01 428.387 130.08 427.838 132.28C427.398 134.26 425.639 135.58 423.551 135.58H410.691C408.053 135.58 405.635 133.05 406.404 130.08C406.954 127.99 407.943 123.81 408.493 121.72C409.043 119.63 410.911 118.42 412.669 118.42H425.639C428.387 118.42 430.696 120.95 429.926 123.92V123.92ZM370.791 125.79L370.132 128.21H350.017L351.886 125.79H370.79H370.791ZM357.381 118.42C358.482 116.99 359.032 116 360.68 116H370.792C371.089 115.995 371.383 116.06 371.651 116.188C371.918 116.317 372.152 116.506 372.334 116.741C372.515 116.976 372.64 117.251 372.696 117.542C372.753 117.834 372.741 118.134 372.661 118.42H357.382H357.381ZM441.467 118.42C440.917 118.42 440.368 118.86 440.258 119.3C440.258 119.3 439.378 122.93 439.049 124.14C438.829 125.02 439.489 125.68 440.259 125.68H456.965C459.384 125.68 461.142 127.88 460.483 130.19C460.153 131.4 459.603 133.82 459.273 135.03C458.943 136.35 457.735 137.78 455.756 137.78H433.004C433.444 135.69 433.993 135.36 435.092 135.36H455.756C456.306 135.36 456.746 134.92 456.966 134.48C456.966 134.48 457.845 130.85 458.174 129.64C458.394 128.87 457.734 128.1 456.965 128.1H440.258C437.62 128.1 436.081 125.79 436.631 123.59C436.961 122.38 437.511 119.96 437.841 118.75C438.28 116.99 439.818 116 441.356 116H464C463.56 118.09 463.01 118.42 461.912 118.42H441.467V118.42Z" fill="#B2B2B2"/>
<path fill-rule="evenodd" clip-rule="evenodd" d="M377.987 221.43L375.333 229.985C376.143 230.302 377.043 230.483 377.987 230.483C378.931 230.483 379.831 230.303 380.595 230.031L377.987 221.431V221.43ZM347 205V248H389.77L431.595 205H347ZM398.585 231.479H395.886V239.672H383.563L382.349 235.734C381.045 236.186 379.561 236.413 377.987 236.413C376.367 236.413 374.883 236.141 373.534 235.688L372.275 239.626H364.719L365.529 237.363C365.439 237.453 365.349 237.544 365.214 237.635C363.325 239.219 360.942 240.034 358.064 240.125H357.614C354.241 240.125 350.958 239.174 348.169 237.545L350.733 232.294C353.521 233.968 355.275 234.376 357.613 234.331C358.828 234.285 359.727 234.059 360.313 233.471C360.672 233.108 360.852 232.656 360.852 232.158C360.897 230.8 359.008 230.166 356.669 229.397C354.78 228.808 352.667 227.994 351.003 226.727C349.023 225.233 348.079 223.377 348.124 220.752C348.169 218.851 348.844 217.131 350.104 215.772C351.946 213.827 354.87 212.65 358.423 212.65C361.48 212.65 365.168 213.556 367.867 214.959L364.943 220.164C362.02 218.716 360.536 218.58 358.872 218.489C356.353 218.354 355.094 219.259 355.094 220.255C355.094 221.432 357.433 222.563 359.681 223.287C363.099 224.374 367.417 225.867 368.047 230.167L374.253 213.148H381.449L388.734 233.472V213.057H397.054C405.014 213.057 408.748 215.954 408.748 222.336C408.928 228.039 405.06 231.479 398.584 231.479H398.585ZM397.73 218.669H395.886V225.549H397.73C400.159 225.549 402.137 224.735 402.137 222.064C402.137 219.529 400.159 218.669 397.73 218.669V218.669Z" fill="#B2B2B2"/>
<path fill-rule="evenodd" clip-rule="evenodd" d="M676.896 12.29C676.32 11.9441 675.708 11.6624 675.07 11.45C674.378 11.2212 673.654 11.1073 672.925 11.113C672.531 11.113 672.171 11.15 671.845 11.226C671.548 11.2909 671.263 11.4012 670.999 11.553C670.777 11.6815 670.587 11.8594 670.444 12.073C670.31 12.2821 670.24 12.5264 670.244 12.775C670.236 13.0082 670.312 13.2365 670.459 13.418C670.602 13.588 670.803 13.735 671.059 13.852C671.315 13.972 671.621 14.072 671.975 14.155C672.328 14.237 672.715 14.311 673.135 14.377L673.925 14.506C674.522 14.5973 675.11 14.7426 675.681 14.94C676.19 15.1132 676.668 15.3671 677.096 15.692C677.496 16.002 677.812 16.378 678.043 16.82C678.272 17.262 678.387 17.783 678.387 18.383C678.387 19.148 678.23 19.813 677.917 20.377C677.608 20.9353 677.175 21.4156 676.652 21.781C676.096 22.1658 675.475 22.4489 674.82 22.617C674.113 22.8032 673.386 22.8964 672.655 22.894C672.122 22.894 671.585 22.855 671.045 22.78C670.512 22.7054 669.985 22.5914 669.468 22.439C668.966 22.29 668.478 22.0996 668.008 21.87C667.563 21.6534 667.142 21.3899 666.753 21.084L668.203 18.858C668.456 19.056 668.747 19.245 669.073 19.428C669.785 19.8146 670.553 20.0866 671.349 20.234C671.773 20.311 672.211 20.351 672.664 20.351C673.051 20.351 673.413 20.315 673.75 20.242C674.087 20.17 674.379 20.062 674.626 19.916C674.855 19.7862 675.053 19.6077 675.206 19.393C675.346 19.187 675.416 18.951 675.416 18.68C675.416 18.443 675.353 18.238 675.226 18.066C675.076 17.8759 674.882 17.7249 674.661 17.626C674.363 17.487 674.051 17.381 673.73 17.31C673.305 17.21 672.876 17.1259 672.445 17.058L671.555 16.919C670.972 16.8299 670.4 16.6859 669.844 16.489C669.353 16.318 668.896 16.0618 668.494 15.732C668.115 15.4172 667.811 15.022 667.603 14.575C667.389 14.12 667.283 13.579 667.283 12.952C667.283 12.234 667.434 11.6 667.738 11.048C668.042 10.498 668.448 10.039 668.958 9.674C669.497 9.29418 670.098 9.01283 670.735 8.843C671.429 8.65244 672.145 8.55756 672.865 8.561C673.352 8.561 673.825 8.588 674.281 8.645C675.188 8.75556 676.074 8.99882 676.911 9.367C677.341 9.555 677.777 9.777 678.217 10.034L676.897 12.29H676.896ZM686.149 12.805C686.817 12.805 687.437 12.933 688.01 13.19C688.573 13.4394 689.08 13.7991 689.501 14.248C689.921 14.697 690.251 15.229 690.491 15.846C690.731 16.462 690.851 17.13 690.851 17.849C690.857 18.5329 690.737 19.212 690.496 19.852C690.275 20.4438 689.94 20.9867 689.511 21.45C689.091 21.898 688.594 22.25 688.021 22.508C687.435 22.7678 686.8 22.8994 686.159 22.894C685.506 22.894 684.947 22.779 684.484 22.553C684.034 22.3355 683.634 22.027 683.309 21.647V26.603H680.708V13.062H683.258V14.12C683.578 13.724 683.974 13.406 684.444 13.165C684.914 12.925 685.482 12.805 686.149 12.805V12.805ZM692.982 22.647H695.592V13.062H692.982V22.647ZM702.425 12.805C703.078 12.805 703.637 12.919 704.1 13.151C704.564 13.381 704.956 13.684 705.276 14.061V8.402H707.877V22.646H705.327V21.588C705.007 21.977 704.61 22.292 704.135 22.533C703.663 22.773 703.092 22.894 702.425 22.894C701.785 22.8992 701.15 22.7676 700.565 22.508C700.002 22.2586 699.495 21.8988 699.074 21.45C698.645 20.9864 698.31 20.4436 698.089 19.852C697.847 19.2121 697.727 18.5329 697.733 17.849C697.733 17.129 697.851 16.462 698.089 15.846C698.325 15.229 698.654 14.696 699.074 14.248C699.494 13.8 699.99 13.448 700.564 13.19C701.15 12.9303 701.784 12.799 702.425 12.805V12.805ZM714.92 12.804C715.62 12.804 716.26 12.926 716.835 13.17C717.398 13.4045 717.905 13.7555 718.322 14.2C718.735 14.64 719.057 15.172 719.286 15.79C719.516 16.412 719.632 17.094 719.632 17.839C719.632 18.1297 719.616 18.4202 719.582 18.709H712.71C712.776 19.059 712.886 19.359 713.04 19.605C713.193 19.852 713.378 20.059 713.595 20.223C713.812 20.388 714.056 20.508 714.33 20.584C714.603 20.66 714.893 20.697 715.2 20.697C715.62 20.697 716.046 20.619 716.476 20.46C716.906 20.302 717.298 20.075 717.651 19.778L719.181 21.44C718.642 21.9325 718.007 22.308 717.316 22.543C716.585 22.7831 715.819 22.9016 715.05 22.894C714.31 22.894 713.631 22.773 713.015 22.533C712.42 22.3063 711.878 21.9591 711.424 21.513C710.973 21.0633 710.62 20.5246 710.388 19.931C710.141 19.315 710.018 18.631 710.018 17.878C710.018 17.126 710.138 16.439 710.378 15.817C710.602 15.2203 710.944 14.6751 711.384 14.214C711.821 13.7642 712.347 13.4104 712.929 13.175C713.561 12.9215 714.238 12.7954 714.919 12.804H714.92ZM727.024 12.804C727.304 12.804 727.556 12.822 727.78 12.858C728.002 12.894 728.205 12.946 728.385 13.012L727.995 15.574C727.754 15.4734 727.502 15.3987 727.245 15.351C726.971 15.2965 726.693 15.2683 726.414 15.267C726.114 15.267 725.838 15.313 725.589 15.406C725.347 15.4929 725.127 15.631 724.944 15.811C724.764 15.989 724.624 16.214 724.524 16.483C724.418 16.7849 724.368 17.1032 724.374 17.423V22.647H721.762V13.062H724.293V14.11C724.574 13.6772 724.971 13.3326 725.439 13.116C725.895 12.908 726.424 12.804 727.024 12.804ZM676.896 32.302C676.32 31.9561 675.708 31.6744 675.07 31.462C674.378 31.2332 673.654 31.1193 672.925 31.125C672.531 31.125 672.171 31.162 671.845 31.238C671.548 31.3029 671.263 31.4132 670.999 31.565C670.777 31.6935 670.587 31.8714 670.444 32.085C670.31 32.2941 670.24 32.5384 670.244 32.787C670.236 33.0202 670.312 33.2485 670.459 33.43C670.602 33.601 670.803 33.747 671.059 33.865C671.315 33.983 671.621 34.085 671.975 34.167C672.328 34.25 672.715 34.323 673.135 34.389L673.925 34.519C674.522 34.6103 675.11 34.7556 675.681 34.953C676.19 35.1262 676.668 35.3801 677.096 35.705C677.496 36.015 677.812 36.39 678.043 36.832C678.272 37.274 678.387 37.795 678.387 38.395C678.387 39.161 678.23 39.825 677.917 40.389C677.608 40.9473 677.175 41.4276 676.652 41.793C676.096 42.1778 675.475 42.4609 674.82 42.629C674.113 42.8152 673.386 42.9084 672.655 42.906C672.122 42.906 671.585 42.868 671.045 42.792C670.512 42.7174 669.985 42.6034 669.468 42.451C668.966 42.302 668.478 42.1116 668.008 41.882C667.563 41.6654 667.142 41.4019 666.753 41.096L668.203 38.87C668.456 39.068 668.747 39.258 669.073 39.44C669.785 39.8266 670.553 40.0986 671.349 40.246C671.773 40.324 672.211 40.363 672.664 40.363C673.051 40.363 673.413 40.327 673.75 40.255C674.087 40.182 674.379 40.074 674.626 39.929C674.855 39.7989 675.053 39.62 675.206 39.405C675.346 39.199 675.416 38.963 675.416 38.693C675.416 38.455 675.353 38.25 675.226 38.079C675.076 37.8889 674.882 37.7379 674.661 37.639C674.363 37.4997 674.051 37.3933 673.73 37.322C673.305 37.222 672.876 37.1379 672.445 37.07L671.555 36.932C670.972 36.8426 670.399 36.6983 669.844 36.501C669.353 36.33 668.896 36.0738 668.494 35.744C668.115 35.4292 667.811 35.034 667.603 34.587C667.389 34.133 667.283 33.591 667.283 32.965C667.283 32.246 667.434 31.612 667.738 31.061C668.036 30.5164 668.453 30.0463 668.958 29.686C669.497 29.3065 670.098 29.0255 670.735 28.856C671.429 28.6651 672.145 28.5699 672.865 28.573C673.352 28.573 673.825 28.601 674.281 28.657C675.188 28.7676 676.074 29.0108 676.911 29.379C677.341 29.567 677.777 29.789 678.217 30.047L676.897 32.302H676.896ZM687.551 35.368H684.04V38.87C684.04 39.167 684.078 39.42 684.155 39.627C684.231 39.835 684.335 40.003 684.465 40.131C684.594 40.261 684.748 40.354 684.925 40.413C685.102 40.473 685.29 40.503 685.49 40.503C685.803 40.503 686.118 40.439 686.435 40.309C686.752 40.181 687.043 40.038 687.311 39.879L688.271 41.897C687.844 42.187 687.374 42.427 686.861 42.619C686.347 42.81 685.746 42.906 685.06 42.906C683.852 42.906 682.946 42.579 682.339 41.926C681.732 41.274 681.429 40.324 681.429 39.078V35.368H679.557V33.074H681.428V30.226H684.04V33.074H687.55V35.368H687.551ZM695.113 32.817C695.393 32.817 695.645 32.834 695.869 32.87C696.091 32.907 696.294 32.958 696.474 33.025L696.084 35.586C695.843 35.4854 695.591 35.4107 695.334 35.363C695.06 35.3088 694.782 35.281 694.503 35.28C694.203 35.28 693.927 35.325 693.678 35.418C693.436 35.5052 693.216 35.6437 693.033 35.824C692.853 36.001 692.713 36.226 692.613 36.496C692.512 36.766 692.463 37.079 692.463 37.436V42.659H689.85V33.074H692.381V34.123C692.661 33.6899 693.059 33.3449 693.527 33.128C693.983 32.92 694.512 32.817 695.112 32.817H695.113ZM707.468 42.659H704.918V41.6C704.591 41.9948 704.185 42.3167 703.726 42.545C703.253 42.785 702.683 42.906 702.016 42.906C701.376 42.9115 700.742 42.7802 700.156 42.521C699.593 42.2713 699.086 41.9112 698.665 41.462C698.236 40.9988 697.901 40.4563 697.679 39.865C697.438 39.2247 697.317 38.5452 697.324 37.861C697.324 37.142 697.442 36.474 697.679 35.859C697.916 35.241 698.245 34.709 698.665 34.26C699.085 33.812 699.581 33.46 700.155 33.203C700.741 32.9429 701.375 32.8113 702.016 32.817C702.683 32.817 703.253 32.937 703.726 33.177C704.2 33.418 704.597 33.737 704.918 34.132V33.074H707.468V42.659V42.659ZM717.242 35.369H713.731V38.869C713.731 39.167 713.769 39.419 713.846 39.627C713.922 39.835 714.026 40.003 714.156 40.131C714.286 40.261 714.439 40.354 714.616 40.413C714.793 40.473 714.981 40.503 715.181 40.503C715.495 40.503 715.81 40.439 716.127 40.309C716.443 40.181 716.735 40.038 717.002 39.879L717.962 41.897C717.535 42.187 717.065 42.427 716.552 42.619C716.038 42.81 715.438 42.906 714.752 42.906C713.543 42.906 712.637 42.579 712.03 41.926C711.423 41.274 711.12 40.324 711.12 39.078V35.368H709.249V33.074H711.119V30.226H713.731V33.074H717.242V35.368V35.369ZM723.724 32.816C724.424 32.816 725.064 32.938 725.639 33.183C726.202 33.4172 726.709 33.7679 727.126 34.212C727.539 34.652 727.861 35.184 728.09 35.803C728.321 36.423 728.436 37.106 728.436 37.851C728.436 38.1417 728.42 38.4322 728.386 38.721H721.514C721.58 39.071 721.69 39.371 721.844 39.617C721.997 39.865 722.183 40.071 722.399 40.235C722.616 40.4 722.86 40.521 723.134 40.596C723.407 40.672 723.698 40.709 724.005 40.709C724.425 40.709 724.85 40.631 725.28 40.473C725.71 40.314 726.102 40.087 726.455 39.791L727.985 41.452C727.446 41.9443 726.812 42.3199 726.121 42.555C725.39 42.7952 724.624 42.9137 723.854 42.906C723.114 42.906 722.435 42.786 721.819 42.546C721.224 42.3193 720.682 41.9721 720.228 41.526C719.776 41.0761 719.424 40.5369 719.192 39.943C718.945 39.327 718.822 38.643 718.822 37.891C718.822 37.139 718.942 36.451 719.182 35.829C719.406 35.2323 719.748 34.6871 720.188 34.226C720.618 33.781 721.133 33.436 721.734 33.188C722.366 32.9341 723.043 32.8077 723.724 32.816V32.816ZM734.429 32.816C735.109 32.816 735.695 32.935 736.189 33.173C736.682 33.411 737.095 33.734 737.429 34.143V33.073H739.989V41.868C739.989 42.639 739.868 43.33 739.624 43.94C739.395 44.5295 739.036 45.06 738.574 45.492C738.098 45.9287 737.536 46.2609 736.924 46.467C736.28 46.691 735.559 46.803 734.758 46.803C733.987 46.8023 733.219 46.7042 732.472 46.511C732.115 46.418 731.765 46.2976 731.426 46.151C731.107 46.0133 730.802 45.8442 730.516 45.646L731.446 43.539C731.934 43.855 732.442 44.098 732.973 44.266C733.503 44.435 734.061 44.518 734.647 44.518C735.054 44.518 735.427 44.464 735.764 44.355C736.099 44.247 736.39 44.085 736.634 43.87C736.878 43.657 737.067 43.39 737.204 43.074C737.347 42.7263 737.417 42.3529 737.409 41.977V41.304C737.073 41.708 736.651 42.0325 736.174 42.254C735.683 42.484 735.102 42.6 734.429 42.6C733.845 42.6022 733.267 42.4827 732.732 42.249C732.198 42.0161 731.715 41.6796 731.312 41.259C730.889 40.8127 730.556 40.2887 730.332 39.716C730.082 39.0782 729.958 38.398 729.966 37.713C729.966 36.974 730.088 36.305 730.331 35.705C730.575 35.105 730.901 34.59 731.311 34.162C731.714 33.7393 732.197 33.4013 732.732 33.168C733.267 32.9338 733.845 32.8143 734.429 32.817V32.816ZM742.732 42.658H745.342V33.074H742.732V42.658ZM744.022 28.276C744.254 28.276 744.473 28.319 744.676 28.405C744.875 28.4854 745.056 28.6046 745.208 28.7557C745.36 28.9068 745.48 29.0868 745.562 29.285C745.649 29.49 745.692 29.708 745.692 29.938C745.693 30.1558 745.651 30.3717 745.568 30.573C745.485 30.7742 745.362 30.9568 745.207 31.11C745.057 31.258 744.88 31.374 744.676 31.457C744.468 31.5398 744.246 31.5815 744.022 31.58C743.797 31.5817 743.575 31.5399 743.366 31.457C743.168 31.3786 742.989 31.2612 742.837 31.1117C742.686 30.9622 742.567 30.7837 742.486 30.587C742.402 30.3811 742.359 30.1605 742.361 29.938C742.361 29.708 742.402 29.49 742.486 29.286C742.569 29.08 742.686 28.904 742.836 28.756C743.152 28.4457 743.579 28.2732 744.022 28.276V28.276ZM752.384 32.816C753.084 32.816 753.724 32.938 754.299 33.183C754.862 33.4172 755.369 33.7679 755.786 34.212C756.199 34.652 756.521 35.184 756.75 35.803C756.981 36.423 757.096 37.106 757.096 37.851C757.096 38.1417 757.08 38.4322 757.046 38.721H750.174C750.24 39.071 750.35 39.371 750.504 39.617C750.657 39.865 750.842 40.071 751.059 40.235C751.276 40.4 751.52 40.521 751.794 40.596C752.067 40.672 752.358 40.709 752.665 40.709C753.085 40.709 753.51 40.631 753.94 40.473C754.37 40.314 754.762 40.087 755.115 39.791L756.645 41.452C756.106 41.9445 755.471 42.32 754.78 42.555C754.049 42.7951 753.283 42.9136 752.514 42.906C751.774 42.906 751.095 42.786 750.479 42.546C749.884 42.3193 749.342 41.9721 748.888 41.526C748.436 41.0761 748.084 40.5369 747.852 39.943C747.605 39.327 747.482 38.643 747.482 37.891C747.482 37.139 747.602 36.451 747.842 35.829C748.066 35.2323 748.408 34.6871 748.848 34.226C749.278 33.781 749.793 33.436 750.394 33.188C751.026 32.9341 751.703 32.8077 752.384 32.816V32.816ZM766.109 35.744C765.65 35.5275 765.172 35.3505 764.683 35.215C764.41 35.1385 764.133 35.0774 763.853 35.032C763.577 34.9866 763.298 34.9632 763.018 34.962C762.518 34.962 762.144 35.042 761.898 35.2C761.651 35.359 761.528 35.57 761.528 35.834C761.524 35.961 761.569 36.0847 761.653 36.18C761.746 36.2796 761.861 36.3571 761.988 36.407C762.128 36.466 762.294 36.515 762.488 36.551C762.682 36.587 762.888 36.621 763.108 36.655L763.968 36.783C765.022 36.942 765.831 37.255 766.394 37.723C766.958 38.191 767.24 38.833 767.24 39.652C767.24 40.147 767.14 40.595 766.94 40.996C766.736 41.4022 766.437 41.7533 766.069 42.02C765.689 42.3 765.222 42.519 764.669 42.674C764.056 42.836 763.423 42.914 762.789 42.906C762.454 42.906 762.103 42.888 761.732 42.852C761.355 42.8139 760.981 42.7528 760.612 42.669C760.232 42.582 759.859 42.4663 759.497 42.323C759.137 42.1814 758.795 41.9985 758.477 41.778L759.507 39.82C759.713 39.958 759.934 40.084 760.167 40.196C760.681 40.441 761.229 40.6075 761.793 40.69C762.103 40.737 762.441 40.76 762.808 40.76C763.415 40.76 763.865 40.68 764.158 40.522C764.452 40.363 764.598 40.143 764.598 39.86C764.598 39.628 764.472 39.444 764.218 39.306C763.964 39.166 763.555 39.059 762.988 38.98L762.198 38.87C759.963 38.567 758.847 37.598 758.847 35.962C758.847 35.467 758.94 35.027 759.127 34.642C759.314 34.255 759.583 33.928 759.937 33.657C760.29 33.387 760.719 33.181 761.223 33.039C761.782 32.8897 762.359 32.818 762.938 32.826C763.324 32.826 763.694 32.845 764.044 32.881C764.722 32.9539 765.39 33.1046 766.034 33.33C766.351 33.444 766.669 33.578 766.989 33.737L766.109 35.744V35.744ZM633.863 3L624.071 8.68V19.235L642.976 8.205L633.863 3ZM622.335 9.638L613 14.91V31.54L622.335 26.263V9.638ZM650.103 12.272L613 33.455V38.737L617.627 41.377L654.731 20.196V14.913L650.103 12.273V12.272ZM633.867 50.65L643.66 44.972V34.417L624.754 45.446L633.867 50.65V50.65ZM645.397 44.015L654.731 38.739V22.107L645.398 27.387V44.015H645.397ZM735.089 35.191C734.715 35.191 734.379 35.257 734.078 35.388C733.787 35.5138 733.525 35.6975 733.308 35.928C733.092 36.1588 732.926 36.431 732.818 36.728C732.704 37.035 732.648 37.363 732.648 37.713C732.648 38.063 732.704 38.389 732.818 38.693C732.926 38.9897 733.093 39.2613 733.31 39.4909C733.527 39.7204 733.788 39.9032 734.078 40.028C734.397 40.1633 734.741 40.2308 735.088 40.226C735.448 40.226 735.779 40.161 736.078 40.033C736.369 39.911 736.632 39.7303 736.849 39.5021C737.067 39.2739 737.236 39.0032 737.344 38.707C737.46 38.401 737.519 38.069 737.519 37.713C737.522 37.3721 737.462 37.0336 737.344 36.714C737.235 36.4161 737.067 36.1435 736.849 35.913C736.635 35.689 736.379 35.513 736.079 35.383C735.766 35.2518 735.429 35.1864 735.089 35.191V35.191ZM702.496 35.221C702.116 35.221 701.771 35.289 701.461 35.428C701.16 35.5594 700.89 35.7522 700.668 35.9939C700.446 36.2357 700.277 36.5211 700.171 36.832C700.053 37.1624 699.993 37.511 699.995 37.862C699.995 38.23 700.054 38.574 700.17 38.894C700.286 39.214 700.454 39.494 700.67 39.731C700.887 39.968 701.15 40.156 701.46 40.294C701.77 40.433 702.116 40.502 702.496 40.502C702.869 40.502 703.21 40.436 703.516 40.304C703.823 40.173 704.086 39.988 704.306 39.751C704.526 39.513 704.697 39.233 704.817 38.91C704.937 38.587 704.997 38.237 704.997 37.861C704.997 37.485 704.937 37.135 704.817 36.813C704.704 36.5022 704.531 36.2167 704.307 35.973C704.086 35.7342 703.816 35.5448 703.517 35.417C703.194 35.2825 702.847 35.2155 702.497 35.22L702.496 35.221ZM723.704 35.041C723.084 35.041 722.594 35.212 722.234 35.551C721.874 35.891 721.637 36.361 721.524 36.961H725.816C725.696 36.341 725.456 35.866 725.096 35.537C724.735 35.207 724.271 35.042 723.704 35.042V35.041ZM752.364 35.041C751.744 35.041 751.254 35.212 750.894 35.551C750.534 35.891 750.297 36.361 750.184 36.961H754.476C754.356 36.341 754.116 35.866 753.756 35.537C753.395 35.207 752.931 35.042 752.364 35.042V35.041ZM702.906 15.209C702.526 15.209 702.18 15.279 701.87 15.416C701.569 15.5475 701.299 15.7404 701.077 15.9824C700.855 16.2243 700.685 16.5099 700.58 16.821C700.462 17.1511 700.402 17.4994 700.404 17.85C700.404 18.219 700.463 18.563 700.58 18.883C700.696 19.203 700.863 19.482 701.08 19.719C701.296 19.957 701.56 20.145 701.87 20.283C702.18 20.422 702.526 20.491 702.906 20.491C703.279 20.491 703.619 20.425 703.926 20.293C704.232 20.162 704.496 19.976 704.716 19.74C704.936 19.502 705.106 19.222 705.226 18.898C705.346 18.576 705.406 18.226 705.406 17.85C705.406 17.474 705.346 17.124 705.226 16.802C705.113 16.4912 704.94 16.2057 704.716 15.962C704.495 15.7232 704.225 15.5338 703.926 15.406C703.603 15.2715 703.256 15.2045 702.906 15.209V15.209ZM694.273 8.265C694.601 8.26266 694.922 8.3573 695.196 8.53702C695.47 8.71674 695.685 8.97351 695.813 9.275C695.9 9.479 695.943 9.696 695.943 9.927C695.944 10.1448 695.902 10.3606 695.818 10.5618C695.735 10.763 695.613 10.9456 695.458 11.099C695.308 11.247 695.131 11.363 694.927 11.445C694.719 11.5285 694.497 11.5706 694.273 11.569C694.039 11.569 693.82 11.528 693.617 11.445C693.419 11.3664 693.24 11.2488 693.089 11.0994C692.937 10.9499 692.818 10.7716 692.737 10.575C692.652 10.3695 692.61 10.1492 692.611 9.927C692.611 9.696 692.653 9.479 692.737 9.274C692.816 9.0753 692.935 8.89481 693.087 8.74352C693.238 8.59224 693.418 8.47332 693.617 8.394C693.82 8.307 694.039 8.265 694.273 8.265V8.265ZM685.67 15.209C685.321 15.204 684.975 15.271 684.654 15.406C684.356 15.534 684.089 15.7231 683.869 15.961C683.649 16.199 683.479 16.479 683.359 16.801C683.237 17.1371 683.176 17.4924 683.179 17.85C683.179 18.226 683.239 18.576 683.359 18.898C683.479 19.222 683.649 19.502 683.869 19.74C684.089 19.976 684.35 20.162 684.654 20.293C684.958 20.425 685.297 20.491 685.67 20.491C686.028 20.4968 686.382 20.4259 686.71 20.283C687.009 20.151 687.278 19.9585 687.499 19.7176C687.72 19.4766 687.889 19.1924 687.995 18.883C688.112 18.563 688.171 18.219 688.171 17.85C688.171 17.487 688.112 17.144 687.995 16.82C687.885 16.5097 687.716 16.2242 687.495 15.98C687.275 15.7403 687.007 15.5484 686.71 15.416C686.382 15.2738 686.027 15.2032 685.67 15.209V15.209ZM714.9 15.031C714.28 15.031 713.79 15.201 713.43 15.541C713.07 15.881 712.832 16.349 712.72 16.95H717.011C716.891 16.33 716.651 15.855 716.291 15.526C715.931 15.196 715.466 15.031 714.901 15.031H714.9Z" fill="#B2B2B2"/>
<path fill-rule="evenodd" clip-rule="evenodd" d="M667.038 114C668.646 114 670 112.696 670 110.979C670.001 110.589 669.926 110.202 669.777 109.842C669.629 109.481 669.411 109.153 669.136 108.876C668.861 108.599 668.534 108.38 668.174 108.229C667.814 108.079 667.428 108.001 667.038 108C665.383 108 664 109.306 664 110.979C664 112.696 665.383 114 667.038 114ZM668.498 127.614V118H664V127.614C664 132.797 668.035 137 673 137V132.316C670.519 132.316 668.497 130.204 668.497 127.614H668.498ZM689.388 119.416C688.005 118.583 686.46 118 684.672 118H684.626C682.059 118 679.642 119.028 677.828 120.768C676.934 121.63 676.224 122.663 675.738 123.805C675.252 124.948 675.001 126.176 675 127.418V127.791C675 132.948 679.277 137.131 684.61 137.131C686.288 137.131 687.937 136.687 689.388 135.844V147H694V118.268H689.388V119.416V119.416ZM736.649 126.094L733.715 125.158C732.696 124.811 731.88 124.262 731.925 123.528C732.011 122.151 733.155 121.795 734.293 121.868C735.153 121.923 736.163 122.338 736.49 123.244L740.427 121.301C739.321 119.16 736.876 118.173 734.421 118.016C730.861 117.788 727.682 120.081 727.501 122.998C727.369 125.138 727.655 127.309 732.215 128.885L734.629 129.675C735.901 130.067 736.568 130.581 736.468 131.512C736.403 132.565 735.325 133.242 734.021 133.199C732.49 133.165 731.23 132.234 730.933 131.129L727 133.06C728.068 135.407 730.68 136.807 733.326 136.977C737.034 137.215 740.76 135.54 740.989 131.847C741.079 130.397 740.725 127.447 736.649 126.093V126.094ZM649.953 109H648.222C645.757 109 643.444 110.072 641.696 111.853C639.96 113.611 639 115.921 639 118.563H643.61C643.61 117.196 644.096 116.16 644.974 115.269C645.397 114.837 645.903 114.495 646.461 114.263C647.019 114.031 647.618 113.914 648.222 113.918H649.878V127.634C649.878 132.806 653.914 137 659.206 137V132.326C656.426 132.326 654.362 130.218 654.362 127.634V113.918H661V109H649.953ZM703.981 118C699.305 118 695 121.722 695 127.43C695 133.467 699.417 137 704.427 137C708.112 137 710.72 135.264 712.051 132.932L708.149 131.076C707.445 132.151 706.279 132.85 704.464 132.85C702.014 132.85 699.974 130.986 699.862 128.767H712.926C712.926 128.767 713 127.978 713 127.287C713 121.543 709.623 118 703.981 118ZM717.431 127.591C717.431 132.228 721.254 136 725.957 136V131.524C723.764 131.524 721.967 129.774 721.967 127.591H721.963V121.766H726V117.913H721.963V112H717.43V117.913H714V121.766H717.43V127.591H717.431ZM689.465 127.791C689.465 129.035 688.903 130.211 687.988 131.081C687.088 131.976 685.988 132.459 684.7 132.459C682.034 132.459 679.98 130.369 679.98 127.791V127.418C679.98 126.179 680.417 125.002 681.329 124.126C682.223 123.244 683.427 122.745 684.683 122.736C687.333 122.746 689.446 124.782 689.446 127.369L689.466 127.791H689.465ZM699.974 125.482C700.084 123.707 701.495 121.955 704.056 121.955C706.876 121.955 708.064 123.707 708.138 125.482H699.974V125.482Z" fill="#B2B2B2"/>
<path fill-rule="evenodd" clip-rule="evenodd" d="M750.545 219.242C750.404 219.123 750.254 219.038 750.115 219.032C749.295 219.003 748.473 218.994 747.652 219.007C746.817 219.015 745.959 219.032 745.066 219.032C745.122 219.119 745.173 219.202 745.221 219.279C745.451 219.646 745.613 219.915 745.793 220.171C747.224 222.213 748.626 224.277 750.116 226.276C750.533 226.836 750.58 227.252 750.334 227.732C750.262 227.869 750.178 228.001 750.084 228.124C749.642 228.716 749.209 229.314 748.78 229.914C747.944 231.086 747.125 232.269 746.295 233.444C745.872 234.042 745.455 234.644 744.892 235.449C745.702 235.449 746.432 235.433 747.122 235.429C747.694 235.423 748.266 235.436 748.836 235.468C749.239 235.493 749.562 235.438 749.835 235.298C750.152 235.138 750.402 234.861 750.631 234.461C750.893 234.005 751.166 233.557 751.45 233.106C752.004 232.224 752.596 231.336 753.208 230.374C754.248 231.936 755.13 233.291 756.047 234.624C756.258 234.93 756.572 235.377 756.857 235.39C757.683 235.424 758.51 235.439 759.336 235.436C760.183 235.436 761.062 235.426 762 235.426C760.13 232.766 758.446 230.334 756.713 227.936C756.484 227.62 756.371 227.358 756.39 227.087C756.405 226.87 756.504 226.647 756.696 226.386C757.572 225.188 758.435 223.981 759.285 222.764L760.073 221.639L761.159 220.089C761.273 219.927 761.381 219.76 761.501 219.571C761.602 219.411 761.713 219.234 761.845 219.029C760.299 219.029 758.991 219.074 757.688 219.011C757.395 218.997 757.162 219.038 756.964 219.131C756.686 219.262 756.479 219.498 756.282 219.831C755.918 220.443 755.544 221.05 755.161 221.651C754.698 222.381 754.21 223.137 753.688 223.962C753.511 223.692 753.34 223.425 753.173 223.162C752.54 222.168 751.967 221.23 751.372 220.326C751.236 220.119 751.099 219.914 750.959 219.71C750.842 219.537 750.703 219.38 750.545 219.242V219.242ZM692.383 230.628C691.996 230.729 691.655 230.946 691.326 231.363L691.28 231.42C690.362 232.501 688.21 232.732 686.81 232.062C686.473 231.9 686.166 231.682 685.901 231.417C685.485 230.996 685.173 230.484 684.991 229.92C684.809 229.357 684.762 228.759 684.853 228.174H696.847C697.046 224.911 696.531 222.031 693.731 220.094C688.099 216.197 680.336 219.63 679.634 226.387C679.414 228.502 679.712 230.471 680.6 232.058C681.506 233.678 683.026 234.898 685.238 235.472C687.306 236.009 689.398 236.046 691.458 235.47C692.516 235.174 693.468 234.756 694.278 234.155C695.372 233.342 696.203 232.195 696.676 230.562C695.822 230.562 695.068 230.574 694.347 230.572C693.977 230.571 693.617 230.565 693.255 230.553C692.963 230.535 692.669 230.561 692.383 230.628V230.628ZM651.632 212.434C655.022 216.058 657.113 220.924 657.064 226.26C656.963 237.18 648.105 246.013 637.106 245.999C626.113 246.122 616.94 236.869 617 225.832C617.038 218.962 620.57 212.987 625.815 209.438C629.12 207.193 633.025 205.995 637.02 206C642.708 206.013 647.941 208.488 651.633 212.434H651.632ZM667.949 219.086V235.344H672.727C672.727 234.77 672.723 234.302 672.727 233.834C672.747 231.538 672.68 229.238 672.809 226.949C672.985 223.822 675.017 222.457 678.012 223.313C678.12 223.343 678.235 223.35 678.422 223.38C678.618 222.44 678.819 221.52 679.001 220.597C679.294 219.101 679.171 218.924 677.66 218.711C677.308 218.669 676.952 218.659 676.597 218.682C674.819 218.764 673.645 219.802 672.604 221.489L672.469 219.086H667.949ZM738.092 235.334H742.86V219.086H738.092V235.334ZM729.916 234.65C730.142 234.974 730.53 235.388 730.86 235.404C732.505 235.481 734.156 235.439 736.073 235.439L729.361 225.593L735.504 219.029C734.388 219.029 733.59 219.129 732.825 219.009C730.734 218.683 729.242 219.423 728 221.135C726.954 222.577 725.633 223.818 724.433 225.149L724.162 225.025V210.849H719.312V235.369H724.132C724.382 233.155 723.405 230.58 726.248 229.237C727.442 231.008 728.658 232.844 729.916 234.65V234.65ZM712.118 235.349V233.344C711.288 234.006 710.618 234.742 709.788 235.171C706.258 236.998 701.625 235.401 700.019 231.775C698.705 228.806 698.735 225.753 700.105 222.806C701.599 219.591 705.249 217.881 708.653 218.896C709.87 219.259 710.917 220.188 711.973 220.818V210.85L716.208 210.828V235.328L712.118 235.348V235.349ZM737.899 215.05H742.945V210.846H737.899V215.051V215.05ZM648.212 232.79C649.103 233.026 650.059 233.022 651.166 233.142C650.907 233.643 650.734 234.066 650.488 234.444C646.838 240.05 640.748 242.524 635.035 241.772C627.943 240.839 622.868 235.732 621.453 229.27C619.533 220.502 625.552 211.893 634.68 210.32C644.009 208.712 652.993 216.252 652.951 225.654C652.943 227.606 651.832 228.853 650.083 228.874C648.356 228.894 647.186 227.671 647.08 225.734C646.807 220.734 643.632 217.091 638.67 216.08C633.023 214.93 627.2 219.639 626.97 225.387C626.78 230.135 629.693 234.037 633.604 235.48C637.734 237.003 642.101 235.706 645.077 232.07C645.202 231.918 645.311 231.753 645.407 231.62C646.467 232.075 647.308 232.551 648.212 232.79V232.79ZM636.952 231.88C633.758 231.852 631.105 229.117 631.157 225.905C631.208 222.714 633.938 220.073 637.15 220.108C640.34 220.143 642.982 222.87 642.943 226.091C642.904 229.279 640.185 231.907 636.953 231.879L636.952 231.88ZM703.819 230.232C704.346 231.508 705.423 232.184 706.799 232.254C708.167 232.323 709.254 231.749 710.006 230.583C711.186 228.753 711.153 225.58 709.93 223.806C708.482 221.704 705.457 221.682 704.17 223.878C703.573 224.896 703.365 226.143 703.005 227.217C703.3 228.348 703.449 229.336 703.819 230.232V230.232ZM684.948 225.3C684.991 223.267 686.474 221.949 688.593 222.004C690.537 222.054 691.694 223.28 691.633 225.3H684.948Z" fill="#B2B2B2"/>
<path fill-rule="evenodd" clip-rule="evenodd" d="M899.1 28.8C899.1 35.6 904.569 41.2 911.43 41.2C915.307 41.2 918.688 39.4 920.975 36.6C921.87 37.7 923.461 39.9 923.759 40.5C923.759 40.5 925.549 37.8 926.543 36.6C928.83 39.4 932.211 41.2 936.089 41.2C942.85 41.2 948.419 35.7 948.419 28.8C948.419 26.1 947.524 23.6 946.032 21.5C946.231 20.1 947.225 18.1 948.518 16.6H940.265C936.089 13.8 930.322 12 923.759 12C917.197 12 911.032 13.8 906.856 16.6H899C900.293 18.1 901.188 20.1 901.486 21.5C899.995 23.6 899.1 26.1 899.1 28.8ZM946.032 28.8C946.032 34.3 941.558 38.8 936.089 38.8C930.62 38.8 926.146 34.3 926.146 28.8C926.146 23.3 930.62 18.8 936.089 18.8C941.558 18.9 946.032 23.3 946.032 28.8ZM923.759 14.1C928.134 14.1 932.211 14.9 935.691 16.5C929.029 16.7 923.759 22.2 923.759 28.9C923.759 22.1 918.29 16.5 911.429 16.5C915.009 14.9 919.384 14.1 923.759 14.1V14.1ZM911.429 18.9C916.899 18.9 921.373 23.4 921.373 28.9C921.373 34.4 916.898 38.9 911.429 38.9C905.961 38.9 901.486 34.4 901.486 28.9C901.586 23.3 905.961 18.9 911.429 18.9V18.9ZM936.089 34.8C939.37 34.8 942.055 32.1 942.055 28.8C942.055 25.5 939.37 22.8 936.089 22.8C932.808 22.8 930.123 25.5 930.123 28.8C930.123 32.1 932.808 34.8 936.089 34.8ZM911.33 34.8C914.611 34.8 917.296 32.1 917.296 28.8C917.296 25.5 914.611 22.8 911.33 22.8C908.049 22.8 905.364 25.5 905.364 28.8C905.364 32.1 908.049 34.8 911.33 34.8ZM911.33 24.6C913.617 24.6 915.506 26.5 915.506 28.8C915.506 31.1 913.617 33 911.33 33C909.043 33 907.154 31.1 907.154 28.8C907.154 26.5 909.043 24.6 911.33 24.6V24.6ZM936.089 24.6C938.376 24.6 940.265 26.5 940.265 28.8C940.265 31.1 938.375 33 936.089 33C933.802 33 931.913 31.1 931.913 28.8C931.913 26.5 933.802 24.6 936.089 24.6ZM911.032 30.8C911.562 30.8 912.071 30.5893 912.446 30.2142C912.821 29.8391 913.032 29.3304 913.032 28.8C913.032 28.2696 912.821 27.7609 912.446 27.3858C912.071 27.0107 911.562 26.8 911.032 26.8C910.502 26.8 909.993 27.0107 909.618 27.3858C909.243 27.7609 909.032 28.2696 909.032 28.8C909.032 29.3304 909.243 29.8391 909.618 30.2142C909.993 30.5893 910.502 30.8 911.032 30.8ZM935.791 30.8C936.321 30.8 936.83 30.5893 937.205 30.2142C937.58 29.8391 937.791 29.3304 937.791 28.8C937.791 28.2696 937.58 27.7609 937.205 27.3858C936.83 27.0107 936.321 26.8 935.791 26.8C935.261 26.8 934.752 27.0107 934.377 27.3858C934.002 27.7609 933.791 28.2696 933.791 28.8C933.791 29.3304 934.002 29.8391 934.377 30.2142C934.752 30.5893 935.261 30.8 935.791 30.8ZM970.751 18.941L968.118 19.725V22.078H966.104V24.275H968.118V31.02C968.118 34 969.357 35.569 971.835 35.569C972.765 35.569 973.384 35.412 974.004 35.255L973.849 33.215H973.694C973.384 33.373 972.919 33.373 972.3 33.373C971.68 33.373 971.215 33.216 971.06 32.745C970.75 32.431 970.596 31.804 970.596 30.863V24.118H974.004V21.922H970.596V18.942H970.751V18.941ZM982.522 21.765C981.747 21.765 980.972 22.078 980.198 22.549C979.578 23.019 979.114 23.49 978.804 24.275L978.649 22.078H976.326V22.235C976.326 23.333 976.481 24.745 976.481 26.314V35.254H979.114V28.196C979.114 26.941 979.424 26 980.044 25.216C980.664 24.588 981.438 24.118 982.212 24.118H983.141V21.45H982.986C982.986 21.764 982.676 21.764 982.522 21.764V21.765ZM985.62 22.078H988.253V35.255H985.62V22.078V22.078ZM987.014 16.588C986.549 16.588 986.084 16.745 985.774 17.058C985.464 17.373 985.31 17.843 985.31 18.314C985.31 18.784 985.465 19.254 985.775 19.569C986.085 19.882 986.549 20.039 987.014 20.039C987.478 20.039 987.944 19.882 988.253 19.569C988.563 19.255 988.718 18.784 988.718 18.314C988.718 17.844 988.563 17.373 988.253 17.059C987.943 16.745 987.478 16.589 987.013 16.589L987.014 16.588ZM997.547 21.765C995.687 21.765 994.139 22.549 993.055 23.961L992.9 21.921H990.422V22.078C990.422 23.176 990.577 24.588 990.577 26.314V40.588H993.211V33.843C993.521 34.313 993.985 34.784 994.605 35.098C995.379 35.412 996.154 35.725 996.928 35.725C998.632 35.725 1000.03 35.098 1001.11 33.686C1002.2 32.431 1002.81 30.549 1002.81 28.51C1002.81 26.627 1002.35 24.902 1001.27 23.647C1000.49 22.392 999.097 21.765 997.548 21.765H997.547ZM1014.9 32.118V27.412C1014.9 25.686 1014.43 24.275 1013.66 23.333C1012.73 22.393 1011.49 21.922 1009.78 21.922C1008.08 21.922 1006.53 22.392 1005.29 23.176L1005.91 25.059H1006.07C1007 24.431 1008.23 24.118 1009.47 24.118C1010.4 24.118 1011.18 24.431 1011.64 24.902C1012.11 25.372 1012.42 26.157 1012.42 26.942V27.098C1009.78 27.098 1007.93 27.568 1006.53 28.353C1005.14 29.137 1004.52 30.393 1004.52 32.118C1004.52 33.216 1004.83 34.157 1005.6 34.784C1006.38 35.569 1007.31 35.882 1008.54 35.882C1010.25 35.882 1011.64 35.255 1012.57 34L1012.88 35.569H1015.36V35.412C1014.9 34.471 1014.9 33.372 1014.9 32.118V32.118ZM1028.52 31.804V15.96H1025.89V23.49C1025.58 23.019 1025.12 22.705 1024.5 22.391C1023.72 22.077 1022.95 21.764 1022.18 21.764C1020.47 21.764 1019.08 22.391 1017.99 23.803C1016.91 25.058 1016.29 26.94 1016.29 28.979C1016.29 30.862 1016.75 32.587 1017.84 33.842C1018.92 35.097 1020.32 35.724 1021.87 35.724C1022.8 35.724 1023.72 35.411 1024.5 34.94C1025.12 34.626 1025.58 33.999 1026.05 33.372L1026.2 35.254H1028.68V35.097C1028.68 34.47 1028.53 33.215 1028.53 31.803L1028.52 31.804ZM1036.11 29.764C1035.8 28.824 1032.4 22.078 1032.4 22.078H1029.46L1035.96 35.255L1042.47 22.078H1039.52C1039.68 22.078 1036.42 29.138 1036.12 29.765L1036.11 29.764ZM1043.86 22.078H1046.49V35.255H1043.86V22.078V22.078ZM1045.25 16.588C1044.79 16.588 1044.32 16.745 1044.01 17.058C1043.7 17.373 1043.55 17.843 1043.55 18.314C1043.55 18.784 1043.71 19.254 1044.01 19.569C1044.32 19.882 1044.79 20.039 1045.25 20.039C1045.72 20.039 1046.18 19.882 1046.49 19.569C1046.8 19.255 1046.96 18.784 1046.96 18.314C1046.96 17.844 1046.8 17.373 1046.49 17.059C1046.18 16.745 1045.72 16.589 1045.25 16.589L1045.25 16.588ZM1054.55 27.568C1053.62 27.255 1052.84 26.941 1052.53 26.628C1052.22 26.314 1052.07 26 1052.07 25.529C1052.07 25.059 1052.22 24.589 1052.53 24.275C1052.84 23.961 1053.46 23.804 1054.08 23.804C1055.01 23.804 1055.94 24.118 1056.87 24.588H1057.03L1057.65 22.549C1056.72 22.079 1055.63 21.765 1054.24 21.765C1052.84 21.765 1051.6 22.078 1050.83 22.863C1049.9 23.647 1049.59 24.588 1049.59 25.686C1049.59 27.412 1050.83 28.666 1053.15 29.451C1054.08 29.765 1054.7 30.078 1055.01 30.392C1055.32 30.706 1055.48 31.176 1055.48 31.647C1055.48 32.117 1055.32 32.588 1054.86 32.902C1054.39 33.216 1053.77 33.372 1053.15 33.372C1052.07 33.372 1050.99 33.059 1049.9 32.432H1049.75L1049.13 34.627H1049.28C1050.37 35.255 1051.76 35.569 1053.15 35.569C1054.7 35.569 1055.94 35.255 1056.87 34.471C1057.8 33.686 1058.27 32.745 1058.27 31.491C1058.27 30.549 1057.96 29.765 1057.49 29.137C1056.72 28.667 1055.79 28.039 1054.55 27.569V27.568ZM1065.86 21.765C1064 21.765 1062.45 22.392 1061.21 23.647C1059.97 24.902 1059.35 26.627 1059.35 28.824C1059.35 30.863 1059.97 32.431 1061.05 33.686C1062.29 34.941 1063.69 35.569 1065.55 35.569C1066.63 35.569 1067.87 35.255 1068.8 34.627C1069.73 34 1070.66 33.216 1071.12 32.117C1071.74 31.02 1071.9 29.765 1071.9 28.353C1071.9 26.313 1071.28 24.745 1070.19 23.49C1069.26 22.392 1067.71 21.765 1065.86 21.765V21.765ZM1080.42 21.765C1079.64 21.765 1078.87 22.078 1078.09 22.549C1077.47 23.019 1077.01 23.49 1076.7 24.275L1076.54 22.078H1074.38V35.254H1077.01V28.196C1077.01 26.941 1077.32 26 1077.94 25.216C1078.56 24.588 1079.33 24.118 1080.11 24.118H1081.03V21.45H1080.88C1080.88 21.764 1080.57 21.764 1080.42 21.764V21.765ZM1012.26 30.863C1012.26 31.647 1011.95 32.275 1011.33 32.745C1010.71 33.373 1009.94 33.529 1009.01 33.529C1008.39 33.529 1007.93 33.373 1007.46 32.902C1007.15 32.588 1006.84 31.961 1006.84 31.333C1006.84 30.549 1007.15 29.765 1007.93 29.294C1008.7 28.824 1010.09 28.51 1012.11 28.51V30.863H1012.26V30.863ZM1025.89 29.608C1025.89 30.706 1025.58 31.648 1024.96 32.275C1024.34 32.902 1023.57 33.215 1022.64 33.215C1021.56 33.215 1020.63 32.745 1020.01 31.961C1019.39 31.02 1019.08 29.921 1019.08 28.667C1019.08 27.255 1019.39 26.157 1020.01 25.216C1020.63 24.275 1021.56 23.961 1022.64 23.961C1023.57 23.961 1024.34 24.275 1024.96 24.902C1025.58 25.529 1025.89 26.471 1025.89 27.412V29.608H1025.89ZM999.251 32.118C998.631 32.902 997.701 33.373 996.617 33.373C995.687 33.373 994.913 33.059 994.294 32.431C993.674 31.804 993.364 30.863 993.364 29.921V27.882C993.364 27.569 993.519 26.942 993.674 26.314C993.829 25.686 994.294 25.216 994.914 24.745C995.444 24.3305 996.099 24.1093 996.772 24.118C997.856 24.118 998.631 24.588 999.405 25.373C1000.03 26.157 1000.34 27.255 1000.34 28.667C1000.34 30.078 1000.03 31.333 999.251 32.117V32.118ZM1068.33 32.275C1067.56 33.215 1066.78 33.686 1065.7 33.686C1064.62 33.686 1063.84 33.216 1063.07 32.275C1062.29 31.333 1061.98 30.235 1061.98 28.824C1061.98 27.412 1062.29 26.314 1063.07 25.373C1063.69 24.431 1064.62 23.961 1065.86 23.961C1066.94 23.961 1067.87 24.431 1068.49 25.373C1069.11 26.313 1069.42 27.412 1069.42 28.823C1069.42 30.078 1069.11 31.333 1068.33 32.275V32.275Z" fill="#B2B2B2"/>
<path fill-rule="evenodd" clip-rule="evenodd" d="M920.374 121.913C916.569 121.913 913.269 123.278 911.352 125.56V111H903V142.909H911.352V137.756C911.352 132.566 913.632 129.591 917.604 129.591C920.327 129.591 921.891 130.623 922.526 132.839C922.939 134.282 923.022 136.144 923.022 138.678V142.908H931.373V136.77C931.373 131.044 930.83 128.33 929.212 126.003C927.207 123.252 924.317 121.913 920.374 121.913V121.913ZM930.132 124.27C930.614 124.963 931.007 125.682 931.327 126.475V111.012H922.975V119.926C926.008 120.43 928.37 121.854 930.132 124.27ZM951.84 136.474H948.814V119.304H951.84V126.247H959.505V119.303H962.53V136.473H959.455L959.505 128.949H951.84V136.474V136.474ZM970.85 124.176C974.506 124.176 976.85 126.651 976.85 130.514C976.85 134.353 974.532 136.776 970.85 136.776C967.17 136.776 964.85 134.353 964.85 130.514C964.85 126.651 967.195 124.176 970.85 124.176ZM985.448 136.576C984.894 136.702 984.163 136.777 983.306 136.777C982.146 136.777 980.936 136.55 980.28 135.743C979.8 135.163 979.776 134.479 979.776 133.319V126.702H977.206V124.454H979.776V120.264L982.65 119.631V124.454H985.448V126.702H982.65V132.838C982.65 133.52 982.75 133.848 982.978 134.076C983.204 134.327 983.684 134.404 984.188 134.404C984.693 134.404 985.146 134.354 985.448 134.304V136.576V136.576ZM997.955 133.748C997.425 134.581 995.811 136.776 992.306 136.776C988.752 136.776 986.331 134.252 986.331 130.364C986.331 126.653 988.878 124.177 992.231 124.177C996.064 124.177 997.904 126.827 997.904 130.515C997.904 130.717 997.879 131.045 997.879 131.247H989.129C989.332 132.889 990.34 134.302 992.458 134.302C994.626 134.302 995.584 132.838 995.961 132.232L997.955 133.748V133.748ZM1000.12 136.475H1003V119.302H1000.12V136.474V136.475ZM1013.91 128.823C1013.49 127.536 1012.58 126.652 1011.12 126.652C1009.2 126.652 1007.99 128.066 1007.99 130.465C1007.99 132.864 1009.22 134.277 1011.12 134.277C1012.75 134.277 1013.56 133.319 1013.99 132.232L1016.31 133.47C1015.75 134.757 1014.12 136.777 1011.04 136.777C1007.56 136.777 1005.14 134.555 1005.14 130.515C1005.14 126.475 1007.74 124.177 1011.04 124.177C1013.84 124.177 1015.58 125.666 1016.31 127.562L1013.91 128.823V128.823ZM1028.66 136.475H1025.79V130.39C1025.79 129.48 1025.76 128.697 1025.59 128.093C1025.34 127.233 1024.71 126.703 1023.47 126.703C1021.68 126.703 1020.82 128.093 1020.82 130.035V136.475H1017.95V119.304H1020.82V125.994C1021.38 124.934 1022.74 124.15 1024.55 124.15C1025.92 124.15 1027.05 124.555 1027.86 125.64C1028.41 126.424 1028.66 127.333 1028.66 129.656V136.474L1028.66 136.475ZM1040.97 133.723C1040.97 134.481 1041.07 134.732 1041.75 134.732H1041.9V136.627C1041.75 136.65 1041.37 136.753 1040.54 136.753C1039.43 136.753 1038.65 136.448 1038.42 135.515H1038.4C1037.92 136.07 1036.96 136.803 1034.82 136.803C1032.5 136.803 1030.58 135.641 1030.58 133.015C1030.58 132.105 1030.83 131.425 1031.26 130.895C1031.99 130.01 1033.25 129.531 1034.82 129.253L1037.46 128.799C1038.09 128.672 1038.22 128.62 1038.22 128.167V127.965C1038.22 126.955 1037.56 126.451 1036.08 126.451C1034.46 126.451 1033.63 127.131 1033.65 128.545L1030.96 128.369C1030.91 125.414 1033.33 124.229 1036.2 124.229C1038.95 124.229 1040.97 125.111 1040.97 127.762V133.722V133.723ZM1054 126.02C1054.73 125.138 1055.94 124.152 1058.11 124.152C1059.65 124.152 1060.66 124.607 1061.29 125.314C1062.05 126.171 1062.35 127.004 1062.35 129.657V136.475H1059.47V130.386C1059.47 128.216 1059.32 126.701 1057.15 126.701C1055.36 126.701 1054.56 128.091 1054.56 130.034V136.473H1051.68V130.386C1051.68 128.216 1051.53 126.701 1049.36 126.701C1047.6 126.701 1046.77 128.091 1046.77 130.034V136.473H1043.89V124.453H1046.77V125.992C1047.35 124.984 1048.63 124.15 1050.52 124.15C1051.76 124.15 1052.79 124.528 1053.5 125.312C1053.7 125.538 1053.85 125.766 1054 126.018V126.02ZM1068.05 135.212V141.272H1065.17V124.454H1068.05V125.767C1068.7 124.907 1070.01 124.151 1071.58 124.151C1074.83 124.151 1076.9 126.778 1076.9 130.514C1076.9 134.125 1074.78 136.776 1071.58 136.776C1069.96 136.776 1068.8 136.146 1068.05 135.211V135.212ZM970.85 134.303C972.691 134.303 974.002 132.837 974.002 130.465C974.002 128.041 972.742 126.626 970.85 126.626C968.96 126.626 967.699 128.066 967.699 130.465C967.699 132.864 969.009 134.303 970.85 134.303ZM989.206 129.101H995.054C994.979 127.536 993.844 126.474 992.23 126.474C990.591 126.474 989.282 127.663 989.206 129.101ZM1038.22 132.206V130.743C1037.79 130.895 1037.44 130.996 1036.58 131.171L1035.47 131.399C1034.11 131.677 1033.51 132.03 1033.51 132.989C1033.51 133.974 1034.16 134.633 1035.57 134.633C1037.13 134.633 1038.22 133.848 1038.22 132.206V132.206ZM1070.97 134.277C1072.81 134.277 1074.02 132.837 1074.02 130.465C1074.02 128.041 1072.81 126.626 1070.97 126.626C1069.16 126.626 1067.92 128.141 1067.92 130.465C1067.92 132.788 1069.16 134.277 1070.97 134.277Z" fill="#B2B2B2"/>
<path fill-rule="evenodd" clip-rule="evenodd" d="M951.727 220.773H944V252.147H952.362C952.362 252.147 952.362 235.769 952.15 234.599C952.15 234.599 956.655 241.601 964.377 252.14H971.429V220.792H963.127C963.127 220.792 963.261 235.816 963.35 237.296C963.35 237.296 961.118 233.08 951.727 220.773" fill="#B2B2B2"/>
<path opacity="0.6" fill-rule="evenodd" clip-rule="evenodd" d="M992.168 208.312C987.715 208.312 984.105 211.939 984.105 216.414C984.105 220.889 987.715 224.516 992.168 224.516C996.622 224.516 1000.23 220.889 1000.23 216.414C1000.23 211.939 996.622 208.312 992.168 208.312V208.312ZM1008.62 216.444C1008.62 225.526 1001.3 232.888 992.258 232.888C983.219 232.888 975.892 225.526 975.892 216.444C975.892 207.362 983.219 200 992.258 200C1001.3 200 1008.62 207.362 1008.62 216.444" fill="#B2B2B2"/>
<path fill-rule="evenodd" clip-rule="evenodd" d="M1036.53 203.947L1032.31 210.823C1032.31 210.823 1028.74 207.833 1023.68 207.833C1020.11 207.833 1020.44 209.478 1020.44 209.717C1020.44 209.957 1020.12 211.287 1026.3 212.617C1032.44 213.94 1036.95 216.175 1036.89 222.782C1036.83 229.24 1031.95 232.709 1023.92 232.709C1015.88 232.709 1010.94 228.822 1010.94 228.822L1015.05 222.065C1015.05 222.065 1019.22 225.098 1024.45 225.175C1028.56 225.235 1028.32 223.38 1028.32 223.38C1028.32 221.826 1026.42 220.928 1020.76 219.733C1015.11 218.537 1011.72 215.607 1011.72 210.763C1011.72 205.591 1014.83 200.271 1024.05 200.254C1032.03 200.239 1036.53 203.947 1036.53 203.947Z" fill="#B2B2B2"/>
<path fill-rule="evenodd" clip-rule="evenodd" d="M54.266 234.796V219.066H64.364V221.86H57.83V226.018H63V228.702H57.83V234.796H54.266V234.796ZM66.542 234.796V218.076H69.71V234.796H66.542ZM72.702 234.796V223.29H75.87V234.796H72.702ZM74.264 221.728C73.751 221.728 73.322 221.563 72.977 221.233C72.632 220.903 72.46 220.489 72.46 219.99C72.46 219.492 72.632 219.077 72.977 218.747C73.322 218.417 73.751 218.252 74.264 218.252C74.777 218.252 75.21 218.417 75.562 218.747C75.914 219.077 76.09 219.492 76.09 219.99C76.09 220.489 75.914 220.903 75.562 221.233C75.21 221.563 74.777 221.728 74.264 221.728ZM82.998 235.016C81.781 235.016 80.857 234.708 80.226 234.092C79.596 233.476 79.28 232.574 79.28 231.386V225.556H77.806V223.29H79.28V220.804H82.448V223.29H84.868V225.556H82.448V231.1C82.448 232.01 82.873 232.464 83.724 232.464C84.179 232.464 84.582 232.391 84.934 232.244V234.708C84.3107 234.919 83.6561 235.023 82.998 235.016V235.016ZM91.511 235.038C89.956 235.038 88.746 234.708 87.881 234.048C87.015 233.388 86.553 232.435 86.495 231.188H89.465C89.538 231.731 89.729 232.138 90.037 232.409C90.345 232.681 90.829 232.816 91.489 232.816C92.691 232.816 93.293 232.398 93.293 231.562C93.293 231.181 93.117 230.888 92.765 230.682C92.413 230.477 91.811 230.316 90.961 230.198C89.406 229.964 88.31 229.582 87.671 229.054C87.034 228.526 86.715 227.712 86.715 226.612C86.715 225.468 87.158 224.585 88.045 223.962C88.933 223.338 90.007 223.026 91.269 223.026C94.173 223.026 95.757 224.214 96.021 226.59H93.095C92.919 225.666 92.317 225.204 91.291 225.204C90.777 225.204 90.378 225.314 90.091 225.534C89.806 225.754 89.663 226.04 89.663 226.392C89.663 226.759 89.82 227.03 90.136 227.206C90.451 227.382 91.034 227.529 91.885 227.646C93.439 227.866 94.572 228.233 95.284 228.746C95.994 229.26 96.351 230.096 96.351 231.254C96.351 232.486 95.929 233.425 95.086 234.07C94.242 234.716 93.051 235.038 91.511 235.038V235.038ZM98.375 234.796V223.29H101.565V225.05C101.873 224.464 102.335 223.98 102.951 223.598C103.567 223.217 104.278 223.026 105.085 223.026C106.683 223.026 107.754 223.694 108.297 225.028C109.191 223.694 110.482 223.026 112.169 223.026C113.298 223.026 114.211 223.393 114.908 224.126C115.604 224.86 115.953 225.96 115.953 227.426V234.796H112.785V227.778C112.785 226.356 112.183 225.644 110.981 225.644C110.335 225.644 109.804 225.85 109.386 226.26C108.968 226.671 108.759 227.25 108.759 227.998V234.796H105.591V227.778C105.591 226.356 104.989 225.644 103.787 225.644C103.141 225.644 102.61 225.85 102.192 226.26C101.774 226.671 101.565 227.25 101.565 227.998V234.796H98.375V234.796ZM123.983 235.038C122.208 235.038 120.763 234.514 119.649 233.465C118.534 232.417 117.977 230.99 117.977 229.186V229.01C117.977 227.221 118.537 225.776 119.66 224.676C120.782 223.576 122.193 223.026 123.895 223.026C125.508 223.026 126.846 223.518 127.91 224.5C128.973 225.483 129.505 226.942 129.505 228.878V229.758H121.211C121.255 230.712 121.526 231.452 122.025 231.98C122.523 232.508 123.205 232.772 124.071 232.772C125.449 232.772 126.249 232.237 126.469 231.166H129.483C129.292 232.413 128.72 233.37 127.767 234.037C126.813 234.705 125.552 235.038 123.983 235.038V235.038ZM121.255 227.8H126.403C126.3 226.084 125.463 225.226 123.895 225.226C123.175 225.226 122.585 225.45 122.124 225.897C121.662 226.345 121.372 226.979 121.254 227.8H121.255ZM131.683 234.796V223.29H134.851V234.796H131.683ZM133.245 221.728C132.731 221.728 132.302 221.563 131.958 221.233C131.613 220.903 131.441 220.489 131.441 219.99C131.441 219.492 131.613 219.077 131.958 218.747C132.302 218.417 132.731 218.252 133.245 218.252C133.758 218.252 134.191 218.417 134.543 218.747C134.895 219.077 135.071 219.492 135.071 219.99C135.071 220.489 134.895 220.903 134.543 221.233C134.191 221.563 133.758 221.728 133.245 221.728ZM141.957 235.038C140.402 235.038 139.192 234.708 138.327 234.048C137.461 233.388 136.999 232.435 136.941 231.188H139.911C139.984 231.731 140.175 232.138 140.483 232.409C140.791 232.681 141.275 232.816 141.935 232.816C143.137 232.816 143.739 232.398 143.739 231.562C143.739 231.181 143.563 230.888 143.211 230.682C142.859 230.477 142.257 230.316 141.407 230.198C139.852 229.964 138.756 229.582 138.117 229.054C137.48 228.526 137.161 227.712 137.161 226.612C137.161 225.468 137.604 224.585 138.491 223.962C139.379 223.338 140.453 223.026 141.715 223.026C144.619 223.026 146.203 224.214 146.467 226.59H143.541C143.365 225.666 142.763 225.204 141.737 225.204C141.223 225.204 140.824 225.314 140.537 225.534C140.252 225.754 140.109 226.04 140.109 226.392C140.109 226.759 140.266 227.03 140.582 227.206C140.897 227.382 141.48 227.529 142.331 227.646C143.885 227.866 145.018 228.233 145.73 228.746C146.44 229.26 146.797 230.096 146.797 231.254C146.797 232.486 146.375 233.425 145.532 234.07C144.688 234.716 143.497 235.038 141.957 235.038V235.038ZM153.023 235.016C151.805 235.016 150.881 234.708 150.251 234.092C149.62 233.476 149.305 232.574 149.305 231.386V225.556H147.831V223.29H149.305V220.804H152.473V223.29H154.893V225.556H152.473V231.1C152.473 232.01 152.898 232.464 153.749 232.464C154.163 232.472 154.574 232.397 154.959 232.244V234.708C154.336 234.919 153.681 235.023 153.023 235.016V235.016ZM162.417 235.038C160.642 235.038 159.197 234.514 158.083 233.465C156.968 232.417 156.411 230.99 156.411 229.186V229.01C156.411 227.221 156.971 225.776 158.094 224.676C159.216 223.576 160.627 223.026 162.329 223.026C163.942 223.026 165.28 223.518 166.344 224.5C167.407 225.483 167.939 226.942 167.939 228.878V229.758H159.645C159.689 230.712 159.96 231.452 160.459 231.98C160.957 232.508 161.639 232.772 162.505 232.772C163.883 232.772 164.683 232.237 164.903 231.166H167.917C167.726 232.413 167.154 233.37 166.201 234.037C165.247 234.705 163.986 235.038 162.417 235.038V235.038ZM159.689 227.8H164.837C164.734 226.084 163.897 225.226 162.329 225.226C161.609 225.226 161.019 225.45 160.558 225.897C160.096 226.345 159.806 226.979 159.688 227.8H159.689ZM170.029 234.796V223.29H173.219V225.49C173.952 223.921 175.191 223.129 176.937 223.114V226.084C175.705 226.07 174.777 226.294 174.154 226.755C173.53 227.217 173.219 227.976 173.219 229.032V234.796H170.029V234.796ZM27.064 207H11.599C7.41 207 5.13 207 2.578 209.6C0.0250001 212.2 0 214.475 0 218.7V234.3C0 238.525 0.0250001 240.8 2.578 243.4C5.13 246 7.41 246 11.598 246H27.064C31.252 246 33.828 246 36.085 243.4C38.343 240.8 38.663 238.525 38.663 234.3V218.7C38.663 214.475 38.643 212.2 36.085 209.6C33.527 207 31.262 207 27.064 207ZM13.854 226.3H10.407V223.91H15.176C15.8728 222.8 16.639 221.735 17.47 220.722H7.162V232.278H10.407V229.488H12.651C12.9653 228.395 13.368 227.329 13.855 226.301L13.854 226.3ZM26.131 220.722L24.038 226.889L22 220.722H18.723C16.96 223.584 16.492 228.573 16.492 232.278H19.737V224.585L22.462 232.278H25.612L28.275 224.585V232.278H31.5V220.722H26.13H26.131Z" fill="#B2B2B2"/>
<path fill-rule="evenodd" clip-rule="evenodd" d="M16.0949 7L17.8949 10.135C18.2549 10.785 18.2549 11.577 17.8949 12.225L7.16686 30.856L12.2429 39.649C12.6341 40.3252 13.1955 40.8872 13.8713 41.2791C14.547 41.6711 15.3137 41.8793 16.0949 41.883C17.6789 41.883 19.1549 41.018 19.9469 39.649L25.0229 30.856L23.6909 28.478L17.9309 38.46C17.5709 39.108 16.8509 39.505 16.1309 39.505C15.3749 39.505 14.6909 39.108 14.3309 38.46L9.90286 30.856L19.8749 13.559L21.6749 16.694C22.0349 17.343 22.0349 18.135 21.6749 18.784L14.7269 30.856L16.0949 33.235L23.6549 20.117L28.6229 28.73C28.9944 29.3835 29.1897 30.1223 29.1897 30.874C29.1897 31.6257 28.9944 32.3645 28.6229 33.018L23.5829 41.775C22.8269 43.108 20.4149 46.099 16.0949 46.099C11.7749 46.099 9.39886 43.109 8.60686 41.775L3.56686 33.018C3.19534 32.3645 3 31.6257 3 30.874C3 30.1223 3.19534 29.3835 3.56686 28.73L16.0949 7ZM39.5309 16.334H43.0229V36.982H39.5309V16.334ZM47.7029 20.117C48.1089 20.1172 48.5059 19.997 48.8436 19.7716C49.1813 19.5461 49.4446 19.2256 49.6002 18.8506C49.7558 18.4755 49.7966 18.0627 49.7176 17.6645C49.6386 17.2662 49.4432 16.9003 49.1563 16.613C48.8693 16.3258 48.5036 16.1301 48.1054 16.0506C47.7072 15.9712 47.2943 16.0117 46.9191 16.1669C46.5439 16.3221 46.2232 16.5851 45.9974 16.9226C45.7717 17.2601 45.6511 17.657 45.6509 18.063C45.6509 19.198 46.5699 20.117 47.7029 20.117ZM45.9389 22.64H49.4669V36.982H45.9389V22.64V22.64ZM58.7189 22.28C54.7229 22.28 51.4829 25.09 51.4829 29.559C51.4829 34.027 54.2909 36.766 58.7549 36.766C60.5189 36.766 62.3909 37.667 62.3909 39.649C62.3909 41.631 60.8069 42.749 58.7549 42.749C56.7029 42.749 55.0109 41.523 55.0109 39.649H51.4829C51.4829 43.505 54.5789 46.063 58.7549 46.063C62.8949 46.063 65.9189 43.613 65.9189 39.649C65.9189 37.811 65.3429 36.081 62.9669 34.892C65.3069 33.812 65.9909 31.325 65.9909 29.522C65.9909 25.09 62.7149 22.28 58.7189 22.28V22.28ZM76.2149 22.28C74.5949 22.28 73.0469 22.784 71.7509 24.406V16.298H68.2229V36.946H71.7509V29.667C71.7509 27.541 73.1909 25.775 75.2789 25.775C77.1509 25.775 78.5189 26.892 78.5189 29.487V36.947H82.0469V29.235C82.0829 25.018 80.2829 22.28 76.2149 22.28V22.28ZM90.6509 34.532C90.2189 34.532 89.8589 34.388 89.6429 34.099C89.4269 33.811 89.3189 33.379 89.3189 32.73V25.667H92.1629L92.4869 22.604H89.3549V18.676L85.7909 19.072V22.64H83.0909V25.703H85.7909V32.838C85.7909 34.316 86.1509 35.433 86.8349 36.19C87.5189 36.946 88.5629 37.343 89.8949 37.343C90.5069 37.343 91.0829 37.271 91.6949 37.09C92.2719 36.9265 92.8189 36.6712 93.3149 36.334L92.0909 34.064C91.6699 34.3633 91.1674 34.5267 90.6509 34.532V34.532ZM105.159 29.271C103.719 28.37 102.027 28.261 100.371 28.153C99.3989 28.081 97.9229 27.865 97.9229 26.603C97.9229 25.703 98.8589 25.199 100.551 25.199C101.919 25.199 103.107 25.523 104.115 26.459L106.095 24.153C104.439 22.712 102.747 22.28 100.479 22.28C97.8509 22.28 94.3949 23.433 94.3949 26.748C94.3949 28.118 95.1149 29.378 96.3029 30.099C97.6349 30.929 99.3629 31.036 100.839 31.217C101.847 31.325 103.503 31.577 103.215 32.982C103.035 33.955 101.847 34.244 101.019 34.28C100.119 34.316 99.2189 34.244 98.3189 34.027C97.3829 33.775 96.6269 33.343 95.7989 32.802L93.9989 35.072C94.1069 35.144 94.2149 35.252 94.2149 35.252C96.5189 37.162 99.7229 37.775 102.639 37.126C104.835 36.622 106.707 35.036 106.707 32.658C106.779 31.325 106.347 29.991 105.159 29.271V29.271ZM116.787 22.28C115.167 22.28 113.259 22.964 112.143 24.55L112.035 22.604H108.615V43.253L112.143 42.856V35.289C113.151 36.839 115.347 37.343 116.859 37.343C121.431 37.343 124.095 33.919 124.095 29.775C124.095 25.559 121.179 22.28 116.787 22.28ZM128.703 31.072C129.099 32.766 130.647 34.244 133.167 34.244C134.463 34.244 136.191 33.594 137.019 32.766L139.287 35C137.775 36.55 135.291 37.307 133.131 37.307C128.667 37.307 125.427 34.352 125.427 29.775C125.427 25.451 128.775 22.28 132.879 22.28C137.199 22.28 140.799 25.235 140.439 31.072H128.703V31.072ZM145.047 31.072C145.443 32.766 146.991 34.244 149.511 34.244C150.807 34.244 152.535 33.594 153.363 32.766L155.631 35C154.119 36.55 151.635 37.307 149.475 37.307C145.011 37.307 141.771 34.352 141.771 29.775C141.771 25.451 145.119 22.28 149.223 22.28C153.543 22.28 157.143 25.235 156.783 31.072H145.047V31.072ZM165.315 37.342C166.935 37.342 168.843 36.658 169.959 35.072L170.067 36.982H173.487V16.334H169.959V24.334C168.951 22.784 166.719 22.316 165.207 22.316C160.635 22.316 158.007 25.703 158.007 29.883C158.007 34.063 160.923 37.343 165.315 37.343V37.342ZM58.7549 33.847C56.7029 33.847 55.0109 32.081 55.0109 29.559C55.0109 27.072 56.7029 25.235 58.7549 25.235C60.8069 25.235 62.4629 27.108 62.4629 29.559C62.4629 32.045 60.7709 33.847 58.7549 33.847V33.847ZM116.499 34.28C114.087 34.28 112.467 32.081 112.467 29.847C112.467 27.613 113.979 25.235 116.499 25.235C119.055 25.235 120.531 27.649 120.531 29.847C120.567 32.081 118.911 34.28 116.499 34.28ZM137.019 28.37C136.623 26.676 134.931 25.199 132.879 25.199C130.971 25.199 129.207 26.496 128.703 28.369H137.019V28.37ZM153.399 28.37C153.003 26.676 151.311 25.199 149.259 25.199C147.351 25.199 145.587 26.496 145.083 28.369H153.399V28.37ZM165.567 25.343C167.979 25.343 169.599 27.541 169.599 29.775C169.599 32.009 168.087 34.388 165.567 34.388C163.011 34.388 161.535 31.973 161.535 29.775C161.535 27.541 163.155 25.343 165.567 25.343V25.343Z" fill="#B2B2B2"/>
<path fill-rule="evenodd" clip-rule="evenodd" d="M363.453 53.835V49.01L420.813 27.853V32.679L363.453 53.835ZM385.183 37.66C385.183 37.66 384.559 37.143 384.57 35.29C384.579 33.954 384.57 29.966 384.57 29.966C384.57 29.162 384.276 28.796 383.759 28.796C383.537 28.795 383.242 28.867 382.872 29.012L380.659 29.811V39.316L375.494 41.201V13.787L384.054 10.666C385.16 10.23 386.12 10.013 386.859 10.088C388.48 10.092 389.146 11.117 389.146 13.457V19.818C389.146 21.5 387.873 23.588 385.953 24.606V24.681C386.248 24.607 386.543 24.608 386.764 24.608C388.167 24.612 389.77 25.498 389.737 27.308C389.737 27.308 389.72 32.011 389.737 33.606C389.754 35.339 390.349 35.773 390.349 35.773L385.183 37.66V37.66ZM383.907 17.099C383.907 16.222 383.759 15.927 383.242 15.926C383.022 15.926 382.726 15.924 382.284 16.07L380.659 16.651V25.131L382.209 24.551C383.464 24.116 383.907 23.386 383.907 22.143V17.099V17.099ZM409.377 29.376V1.886L414.541 -1.96695e-09V22.883L420.813 20.56V25.168L409.377 29.376ZM368.742 21.006V43.67L363.575 45.557V22.893L359 24.562V19.81L373.243 14.584V19.336L368.742 21.006ZM401.227 32.165L396.8 33.835C395.913 32.808 391.304 8.159 391.304 8.159L396.47 6.272C396.47 6.272 398.495 22.883 399.012 23.762C399.529 22.519 401.642 4.564 401.642 4.564L406.807 2.677C406.807 2.677 402.037 30.704 401.227 32.165Z" fill="#838997"/>
</svg>
